<svg width="43" height="43" viewBox="0 0 43 43" fill="none" xmlns="http://www.w3.org/2000/svg">
<path d="M21.3433 36.6578C29.8026 36.6578 36.6602 29.8002 36.6602 21.3409C36.6602 12.8816 29.8026 6.02393 21.3433 6.02393C12.884 6.02393 6.02637 12.8816 6.02637 21.3409C6.02637 29.8002 12.884 36.6578 21.3433 36.6578Z" fill="#422C88"/>
<path d="M21.3436 14.6903C23.5061 14.6903 23.7639 14.6975 24.6232 14.7404C25.4109 14.7762 25.8406 14.9051 26.127 15.0197C26.5065 15.1701 26.7787 15.3419 27.0579 15.6284C27.3444 15.9148 27.5162 16.1798 27.6666 16.5593C27.7812 16.8457 27.9101 17.2754 27.9459 18.0631C27.9817 18.9152 27.996 19.173 27.996 21.3427C27.996 23.5053 27.9888 23.7631 27.9459 24.6153C27.9101 25.403 27.7812 25.8326 27.6666 26.119C27.5162 26.4986 27.3444 26.7707 27.0579 27.05C26.7715 27.3364 26.5065 27.5082 26.127 27.6586C25.8406 27.7732 25.4109 27.9021 24.6232 27.9379C23.7711 27.9737 23.5133 27.988 21.3436 27.988C19.181 27.988 18.9232 27.9809 18.0639 27.9379C17.2762 27.9021 16.8465 27.7732 16.5601 27.6586C16.1806 27.5082 15.9085 27.3364 15.6292 27.05C15.3428 26.7635 15.1709 26.4986 15.0205 26.119C14.9059 25.8326 14.777 25.403 14.7412 24.6153C14.7054 23.7631 14.6911 23.5053 14.6911 21.3427C14.6911 19.1802 14.6983 18.9224 14.7412 18.0631C14.777 17.2754 14.9059 16.8457 15.0205 16.5593C15.1709 16.1798 15.3428 15.9077 15.6292 15.6284C15.9156 15.3419 16.1806 15.1701 16.5601 15.0197C16.8465 14.9051 17.2762 14.7762 18.0639 14.7404C18.916 14.7046 19.1738 14.6903 21.3436 14.6903ZM21.3436 13.2295C19.1452 13.2295 18.8659 13.2367 17.9994 13.2796C17.133 13.3226 16.5458 13.4586 16.0302 13.6591C15.5003 13.8668 15.042 14.1461 14.5909 14.5972C14.1397 15.0484 13.8605 15.4995 13.6528 16.0366C13.4523 16.5521 13.3162 17.1393 13.2733 18.0058C13.2303 18.8723 13.2231 19.1444 13.2231 21.3499C13.2231 23.5483 13.2303 23.8276 13.2733 24.694C13.3091 25.5605 13.4523 26.1477 13.6528 26.6633C13.8605 27.1932 14.1397 27.6515 14.5909 28.1026C15.042 28.5537 15.4931 28.833 16.0302 29.0407C16.5458 29.2412 17.133 29.3772 17.9994 29.4202C18.8659 29.456 19.138 29.4703 21.3436 29.4703C23.5491 29.4703 23.8212 29.4632 24.6877 29.4202C25.5541 29.3844 26.1413 29.2412 26.6569 29.0407C27.1868 28.833 27.6451 28.5537 28.0963 28.1026C28.5474 27.6515 28.8267 27.2003 29.0343 26.6633C29.2348 26.1477 29.3709 25.5605 29.4139 24.694C29.4568 23.8276 29.464 23.5555 29.464 21.3499C29.464 19.1515 29.4568 18.8723 29.4139 18.0058C29.378 17.1465 29.2348 16.5521 29.0343 16.0366C28.8267 15.5066 28.5474 15.0484 28.0963 14.5972C27.6451 14.1461 27.194 13.8668 26.6569 13.6591C26.1413 13.4586 25.5541 13.3226 24.6877 13.2796C23.8212 13.2438 23.5419 13.2295 21.3436 13.2295Z" fill="white"/>
<path d="M21.3438 17.1753C19.0452 17.1753 17.1833 19.0371 17.1833 21.3358C17.1833 23.6344 19.0452 25.4962 21.3438 25.4962C23.6424 25.4962 25.5043 23.6344 25.5043 21.3358C25.5043 19.0443 23.6424 17.1753 21.3438 17.1753ZM21.3438 24.0426C19.8543 24.0426 18.6442 22.8324 18.6442 21.3429C18.6442 19.8535 19.8543 18.6433 21.3438 18.6433C22.8333 18.6433 24.0435 19.8535 24.0435 21.3429C24.0435 22.8324 22.8333 24.0426 21.3438 24.0426Z" fill="white"/>
<path d="M26.6426 17.0105C26.6426 17.5476 26.2058 17.9844 25.6687 17.9844C25.1316 17.9844 24.6948 17.5476 24.6948 17.0105C24.6948 16.4734 25.1316 16.0366 25.6687 16.0366C26.2058 16.0366 26.6426 16.4734 26.6426 17.0105Z" fill="white"/>
</svg>
