<svg width="42" height="43" viewBox="0 0 42 43" fill="none" xmlns="http://www.w3.org/2000/svg">
<path d="M21.0036 36.6578C12.5806 36.6578 5.68311 29.7691 5.68311 21.3409C5.68311 12.9198 12.5734 6.02393 21.0036 6.02393H21.5122C29.6559 6.02393 36.317 12.6835 36.317 20.8253V21.3337C36.3241 29.7691 29.4267 36.6578 21.0036 36.6578Z" fill="#422C88"/>
<path d="M21.0034 32.7981C14.6575 32.7981 9.45752 27.6065 9.45752 21.2549C9.45752 14.9104 14.6503 9.71167 21.0034 9.71167H21.3257C27.4998 9.71167 32.5493 14.76 32.5493 20.9326V21.2549C32.5493 27.6065 27.3494 32.7981 21.0034 32.7981Z" fill="#422C88"/>
<path d="M21.5121 9.56836H21.0036C14.5717 9.56836 9.31445 14.8315 9.31445 21.2548C9.31445 27.6852 14.5789 32.9412 21.0036 32.9412C27.4355 32.9412 32.6927 27.678 32.6927 21.2548V20.7464C32.6927 14.6024 27.6647 9.56836 21.5121 9.56836ZM17.6945 27.5276H14.9441V18.684H17.6945V27.5276ZM16.3193 17.481C15.4384 17.481 14.7221 16.765 14.7221 15.8842C14.7221 15.0034 15.4312 14.2945 16.3193 14.2945C17.2003 14.2945 17.9094 15.0106 17.9094 15.8842C17.9094 16.765 17.2003 17.481 16.3193 17.481ZM27.987 27.5276H25.2438V23.2312C25.2438 22.2072 25.2223 20.8896 23.8184 20.8896C22.386 20.8896 22.1711 22.0067 22.1711 23.1595V27.5348H19.4278V18.684H22.0636V19.8942H22.0994C22.4647 19.1996 23.36 18.4692 24.6994 18.4692C27.4785 18.4692 27.9942 20.3024 27.9942 22.6798V27.5276H27.987Z" fill="#F9F9F9"/>
</svg>
