<svg width="43" height="43" viewBox="0 0 43 43" fill="none" xmlns="http://www.w3.org/2000/svg">
<path d="M21.6604 36.6578C13.2373 36.6578 6.33984 29.7691 6.33984 21.3409C6.33984 12.9198 13.2301 6.02393 21.6604 6.02393H22.1689C30.3126 6.02393 36.9737 12.6835 36.9737 20.8253V21.3337C36.9809 29.7691 30.0906 36.6578 21.6604 36.6578Z" fill="#422C88"/>
<path d="M21.9828 32.7122H21.3382C15.2645 32.7122 10.2937 27.7427 10.2937 21.6703V21.0258C10.2937 14.9535 15.2645 9.98389 21.3382 9.98389H22.2908C28.1999 9.98389 33.0345 14.8174 33.0345 20.7251V21.6775C33.0345 27.7427 28.0638 32.7122 21.9828 32.7122Z" fill="#422C88"/>
<path d="M22.1619 9.8335H21.6606C15.3289 9.8335 10.1433 15.0179 10.1433 21.3481C10.1433 27.6782 15.3289 32.8626 21.6606 32.8626C27.9922 32.8626 33.1778 27.6782 33.1778 21.3481V20.8468C33.1778 14.7888 28.2214 9.8335 22.1619 9.8335ZM28.2071 18.7773C28.2142 18.9134 28.2142 19.0494 28.2142 19.1855C28.2142 23.3244 25.0627 28.0935 19.3041 28.0935C17.535 28.0935 15.8876 27.5779 14.5053 26.69C14.7488 26.7186 14.9995 26.733 15.2502 26.733C16.7185 26.733 18.065 26.2317 19.1394 25.3939C17.7713 25.3653 16.611 24.463 16.2171 23.217C16.4105 23.2528 16.6039 23.2743 16.8044 23.2743C17.0909 23.2743 17.3702 23.2385 17.6281 23.1669C16.1956 22.8805 15.1141 21.613 15.1141 20.0949C15.1141 20.0806 15.1141 20.0663 15.1141 20.0519C15.5366 20.2883 16.0165 20.4243 16.5322 20.4458C15.6942 19.8872 15.1356 18.9277 15.1356 17.8393C15.1356 17.2664 15.2931 16.7293 15.5581 16.2639C17.1052 18.1543 19.4115 19.4003 22.0115 19.5364C21.9614 19.3072 21.9327 19.0709 21.9327 18.8203C21.9327 17.0945 23.3366 15.691 25.0627 15.691C25.9652 15.691 26.7746 16.0705 27.3476 16.6792C28.0638 16.536 28.7299 16.2782 29.3387 15.9202C29.1024 16.6506 28.6082 17.2664 27.9635 17.6531C28.5938 17.5743 29.2026 17.4096 29.7613 17.159C29.353 17.782 28.8159 18.3334 28.2071 18.7773Z" fill="#F9F9F9"/>
</svg>
